<?xml version="1.0" encoding="UTF-8" standalone="no"?>
<!-- Created with Inkscape (http://www.inkscape.org/) -->

<svg
   xmlns:dc="http://purl.org/dc/elements/1.1/"
   xmlns:cc="http://creativecommons.org/ns#"
   xmlns:rdf="http://www.w3.org/1999/02/22-rdf-syntax-ns#"
   xmlns:svg="http://www.w3.org/2000/svg"
   xmlns="http://www.w3.org/2000/svg"
   xmlns:sodipodi="http://sodipodi.sourceforge.net/DTD/sodipodi-0.dtd"
   xmlns:inkscape="http://www.inkscape.org/namespaces/inkscape"
   width="433.00891"
   height="80.513916"
   id="svg2"
   version="1.1"
   inkscape:version="0.48.3.1 r9886"
   sodipodi:docname="UMach-Speicherstruktur.svg">
  <sodipodi:namedview
     id="base"
     pagecolor="#ffffff"
     bordercolor="#666666"
     borderopacity="1.0"
     inkscape:pageopacity="0.0"
     inkscape:pageshadow="2"
     inkscape:zoom="2.0761697"
     inkscape:cx="216.50446"
     inkscape:cy="40.256959"
     inkscape:document-units="px"
     inkscape:current-layer="layer1"
     showgrid="false"
     inkscape:showpageshadow="false"
     fit-margin-top="0"
     fit-margin-left="0"
     fit-margin-right="0"
     fit-margin-bottom="0"
     inkscape:window-width="1280"
     inkscape:window-height="746"
     inkscape:window-x="-2"
     inkscape:window-y="-3"
     inkscape:window-maximized="1"
     inkscape:snap-bbox="true"
     inkscape:bbox-paths="true"
     inkscape:object-paths="true"
     inkscape:snap-midpoints="true"
     inkscape:snap-bbox-edge-midpoints="true"
     inkscape:snap-global="false"
     showguides="true"
     inkscape:guide-bbox="true"
     inkscape:snap-nodes="true"
     inkscape:snap-intersection-paths="false"
     inkscape:object-nodes="true"
     inkscape:snap-smooth-nodes="true" />
  <defs
     id="defs4">
    <marker
       inkscape:stockid="Arrow1Mstart"
       orient="auto"
       refY="0"
       refX="0"
       id="Arrow1Mstart"
       style="overflow:visible">
      <path
         id="path3905"
         d="M 0,0 5,-5 -12.5,0 5,5 0,0 z"
         style="fill-rule:evenodd;stroke:#000000;stroke-width:1pt"
         transform="matrix(0.4,0,0,0.4,4,0)"
         inkscape:connector-curvature="0" />
    </marker>
    <marker
       inkscape:stockid="Arrow1Mend"
       orient="auto"
       refY="0"
       refX="0"
       id="Arrow1Mend"
       style="overflow:visible">
      <path
         id="path3908"
         d="M 0,0 5,-5 -12.5,0 5,5 0,0 z"
         style="fill-rule:evenodd;stroke:#000000;stroke-width:1pt"
         transform="matrix(-0.4,0,0,-0.4,-4,0)"
         inkscape:connector-curvature="0" />
    </marker>
    <marker
       inkscape:stockid="Arrow1Lend"
       orient="auto"
       refY="0"
       refX="0"
       id="Arrow1Lend"
       style="overflow:visible">
      <path
         id="path3902"
         d="M 0,0 5,-5 -12.5,0 5,5 0,0 z"
         style="fill-rule:evenodd;stroke:#000000;stroke-width:1pt"
         transform="matrix(-0.8,0,0,-0.8,-10,0)"
         inkscape:connector-curvature="0" />
    </marker>
    <marker
       inkscape:stockid="Arrow1Mend9"
       orient="auto"
       refY="0"
       refX="0"
       id="Arrow1Mend9"
       style="overflow:visible">
      <path
         id="path3045"
         d="M 0,0 5,-5 -12.5,0 5,5 0,0 z"
         style="fill:#666666;fill-rule:evenodd;stroke:#666666;stroke-width:1pt"
         transform="matrix(-0.4,0,0,-0.4,-4,0)"
         inkscape:connector-curvature="0" />
    </marker>
    <marker
       inkscape:stockid="Arrow1MendC"
       orient="auto"
       refY="0"
       refX="0"
       id="Arrow1MendC"
       style="overflow:visible">
      <path
         id="path3169"
         d="M 0,0 5,-5 -12.5,0 5,5 0,0 z"
         style="fill:#666666;fill-rule:evenodd;stroke:#666666;stroke-width:1pt"
         transform="matrix(-0.4,0,0,-0.4,-4,0)"
         inkscape:connector-curvature="0" />
    </marker>
    <marker
       inkscape:stockid="Arrow1Mstart0"
       orient="auto"
       refY="0"
       refX="0"
       id="Arrow1Mstart0"
       style="overflow:visible">
      <path
         id="path3881"
         d="M 0,0 5,-5 -12.5,0 5,5 0,0 z"
         style="fill:#d40000;fill-rule:evenodd;stroke:#d40000;stroke-width:1pt"
         transform="matrix(0.4,0,0,0.4,4,0)"
         inkscape:connector-curvature="0" />
    </marker>
    <marker
       inkscape:stockid="Arrow1Mendb"
       orient="auto"
       refY="0"
       refX="0"
       id="Arrow1Mendb"
       style="overflow:visible">
      <path
         id="path3884"
         d="M 0,0 5,-5 -12.5,0 5,5 0,0 z"
         style="fill:#d40000;fill-rule:evenodd;stroke:#d40000;stroke-width:1pt"
         transform="matrix(-0.4,0,0,-0.4,-4,0)"
         inkscape:connector-curvature="0" />
    </marker>
    <marker
       inkscape:stockid="Arrow1MstartZ"
       orient="auto"
       refY="0"
       refX="0"
       id="Arrow1MstartZ"
       style="overflow:visible">
      <path
         id="path3887"
         d="M 0,0 5,-5 -12.5,0 5,5 0,0 z"
         style="fill:#0000ff;fill-rule:evenodd;stroke:#0000ff;stroke-width:1pt"
         transform="matrix(0.4,0,0,0.4,4,0)"
         inkscape:connector-curvature="0" />
    </marker>
    <marker
       inkscape:stockid="Arrow1Mendl"
       orient="auto"
       refY="0"
       refX="0"
       id="Arrow1Mendl"
       style="overflow:visible">
      <path
         id="path3890"
         d="M 0,0 5,-5 -12.5,0 5,5 0,0 z"
         style="fill:#0000ff;fill-rule:evenodd;stroke:#0000ff;stroke-width:1pt"
         transform="matrix(-0.4,0,0,-0.4,-4,0)"
         inkscape:connector-curvature="0" />
    </marker>
    <marker
       inkscape:stockid="Arrow1Mstartq"
       orient="auto"
       refY="0"
       refX="0"
       id="Arrow1Mstartq"
       style="overflow:visible">
      <path
         id="path3893"
         d="M 0,0 5,-5 -12.5,0 5,5 0,0 z"
         style="fill:#0000ff;fill-rule:evenodd;stroke:#0000ff;stroke-width:1pt"
         transform="matrix(0.4,0,0,0.4,4,0)"
         inkscape:connector-curvature="0" />
    </marker>
    <marker
       inkscape:stockid="Arrow1MendL"
       orient="auto"
       refY="0"
       refX="0"
       id="Arrow1MendL"
       style="overflow:visible">
      <path
         id="path3896"
         d="M 0,0 5,-5 -12.5,0 5,5 0,0 z"
         style="fill:#0000ff;fill-rule:evenodd;stroke:#0000ff;stroke-width:1pt"
         transform="matrix(-0.4,0,0,-0.4,-4,0)"
         inkscape:connector-curvature="0" />
    </marker>
    <marker
       inkscape:stockid="Arrow1Mendk"
       orient="auto"
       refY="0"
       refX="0"
       id="Arrow1Mendk"
       style="overflow:visible">
      <path
         id="path3899"
         d="M 0,0 5,-5 -12.5,0 5,5 0,0 z"
         style="fill:#0000ff;fill-rule:evenodd;stroke:#0000ff;stroke-width:1pt"
         transform="matrix(-0.4,0,0,-0.4,-4,0)"
         inkscape:connector-curvature="0" />
    </marker>
    <marker
       inkscape:stockid="Arrow1Mstarta"
       orient="auto"
       refY="0"
       refX="0"
       id="Arrow1Mstarta"
       style="overflow:visible">
      <path
         id="path3903"
         d="M 0,0 5,-5 -12.5,0 5,5 0,0 z"
         style="fill:#0000ff;fill-rule:evenodd;stroke:#0000ff;stroke-width:1pt"
         transform="matrix(0.4,0,0,0.4,4,0)"
         inkscape:connector-curvature="0" />
    </marker>
    <marker
       inkscape:stockid="Arrow1Mend4"
       orient="auto"
       refY="0"
       refX="0"
       id="Arrow1Mend4"
       style="overflow:visible">
      <path
         id="path3906"
         d="M 0,0 5,-5 -12.5,0 5,5 0,0 z"
         style="fill:#0000ff;fill-rule:evenodd;stroke:#0000ff;stroke-width:1pt"
         transform="matrix(-0.4,0,0,-0.4,-4,0)"
         inkscape:connector-curvature="0" />
    </marker>
    <marker
       inkscape:stockid="Arrow1Mstart6"
       orient="auto"
       refY="0"
       refX="0"
       id="Arrow1Mstart6"
       style="overflow:visible">
      <path
         id="path3909"
         d="M 0,0 5,-5 -12.5,0 5,5 0,0 z"
         style="fill:#d40000;fill-rule:evenodd;stroke:#d40000;stroke-width:1pt"
         transform="matrix(0.4,0,0,0.4,4,0)"
         inkscape:connector-curvature="0" />
    </marker>
    <marker
       inkscape:stockid="Arrow1MendX"
       orient="auto"
       refY="0"
       refX="0"
       id="Arrow1MendX"
       style="overflow:visible">
      <path
         id="path3912"
         d="M 0,0 5,-5 -12.5,0 5,5 0,0 z"
         style="fill:#d40000;fill-rule:evenodd;stroke:#d40000;stroke-width:1pt"
         transform="matrix(-0.4,0,0,-0.4,-4,0)"
         inkscape:connector-curvature="0" />
    </marker>
    <marker
       inkscape:stockid="Arrow1Mend5"
       orient="auto"
       refY="0"
       refX="0"
       id="Arrow1Mend5"
       style="overflow:visible">
      <path
         id="path3915"
         d="M 0,0 5,-5 -12.5,0 5,5 0,0 z"
         style="fill:#d40000;fill-rule:evenodd;stroke:#d40000;stroke-width:1pt"
         transform="matrix(-0.4,0,0,-0.4,-4,0)"
         inkscape:connector-curvature="0" />
    </marker>
    <marker
       inkscape:stockid="Arrow1Mstart6J"
       orient="auto"
       refY="0"
       refX="0"
       id="Arrow1Mstart6J"
       style="overflow:visible">
      <path
         id="path3918"
         d="M 0,0 5,-5 -12.5,0 5,5 0,0 z"
         style="fill:#d40000;fill-rule:evenodd;stroke:#d40000;stroke-width:1pt"
         transform="matrix(0.4,0,0,0.4,4,0)"
         inkscape:connector-curvature="0" />
    </marker>
    <marker
       inkscape:stockid="Arrow1MendB"
       orient="auto"
       refY="0"
       refX="0"
       id="Arrow1MendB"
       style="overflow:visible">
      <path
         id="path3921"
         d="M 0,0 5,-5 -12.5,0 5,5 0,0 z"
         style="fill:#d40000;fill-rule:evenodd;stroke:#d40000;stroke-width:1pt"
         transform="matrix(-0.4,0,0,-0.4,-4,0)"
         inkscape:connector-curvature="0" />
    </marker>
    <marker
       inkscape:stockid="Arrow1MstartI"
       orient="auto"
       refY="0"
       refX="0"
       id="Arrow1MstartI"
       style="overflow:visible">
      <path
         id="path3924"
         d="M 0,0 5,-5 -12.5,0 5,5 0,0 z"
         style="fill:#d40000;fill-rule:evenodd;stroke:#d40000;stroke-width:1pt"
         transform="matrix(0.4,0,0,0.4,4,0)"
         inkscape:connector-curvature="0" />
    </marker>
    <marker
       inkscape:stockid="Arrow1Mstartv"
       orient="auto"
       refY="0"
       refX="0"
       id="Arrow1Mstartv"
       style="overflow:visible">
      <path
         id="path3927"
         d="M 0,0 5,-5 -12.5,0 5,5 0,0 z"
         style="fill:#0000ff;fill-rule:evenodd;stroke:#0000ff;stroke-width:1pt"
         transform="matrix(0.4,0,0,0.4,4,0)"
         inkscape:connector-curvature="0" />
    </marker>
    <marker
       inkscape:stockid="Arrow1Mendc"
       orient="auto"
       refY="0"
       refX="0"
       id="Arrow1Mendc"
       style="overflow:visible">
      <path
         id="path4175"
         d="M 0,0 5,-5 -12.5,0 5,5 0,0 z"
         style="fill:#d40000;fill-rule:evenodd;stroke:#d40000;stroke-width:1pt"
         transform="matrix(-0.4,0,0,-0.4,-4,0)"
         inkscape:connector-curvature="0" />
    </marker>
    <marker
       inkscape:stockid="Arrow1Mstart1"
       orient="auto"
       refY="0"
       refX="0"
       id="Arrow1Mstart1"
       style="overflow:visible">
      <path
         id="path4178"
         d="M 0,0 5,-5 -12.5,0 5,5 0,0 z"
         style="fill:#d40000;fill-rule:evenodd;stroke:#d40000;stroke-width:1pt"
         transform="matrix(0.4,0,0,0.4,4,0)"
         inkscape:connector-curvature="0" />
    </marker>
    <marker
       inkscape:stockid="Arrow1MendY"
       orient="auto"
       refY="0"
       refX="0"
       id="Arrow1MendY"
       style="overflow:visible">
      <path
         id="path4181"
         d="M 0,0 5,-5 -12.5,0 5,5 0,0 z"
         style="fill:#d40000;fill-rule:evenodd;stroke:#d40000;stroke-width:1pt"
         transform="matrix(-0.4,0,0,-0.4,-4,0)"
         inkscape:connector-curvature="0" />
    </marker>
    <marker
       inkscape:stockid="Arrow1MstartA"
       orient="auto"
       refY="0"
       refX="0"
       id="Arrow1MstartA"
       style="overflow:visible">
      <path
         id="path4184"
         d="M 0,0 5,-5 -12.5,0 5,5 0,0 z"
         style="fill:#0000ff;fill-rule:evenodd;stroke:#0000ff;stroke-width:1pt"
         transform="matrix(0.4,0,0,0.4,4,0)"
         inkscape:connector-curvature="0" />
    </marker>
    <marker
       inkscape:stockid="Arrow1MendCE"
       orient="auto"
       refY="0"
       refX="0"
       id="Arrow1MendCE"
       style="overflow:visible">
      <path
         id="path4187"
         d="M 0,0 5,-5 -12.5,0 5,5 0,0 z"
         style="fill:#0000ff;fill-rule:evenodd;stroke:#0000ff;stroke-width:1pt"
         transform="matrix(-0.4,0,0,-0.4,-4,0)"
         inkscape:connector-curvature="0" />
    </marker>
    <marker
       inkscape:stockid="Arrow1Mstart5"
       orient="auto"
       refY="0"
       refX="0"
       id="Arrow1Mstart5"
       style="overflow:visible">
      <path
         id="path4190"
         d="M 0,0 5,-5 -12.5,0 5,5 0,0 z"
         style="fill:#d40000;fill-rule:evenodd;stroke:#d40000;stroke-width:1pt"
         transform="matrix(0.4,0,0,0.4,4,0)"
         inkscape:connector-curvature="0" />
    </marker>
    <marker
       inkscape:stockid="Arrow1MendXU"
       orient="auto"
       refY="0"
       refX="0"
       id="Arrow1MendXU"
       style="overflow:visible">
      <path
         id="path4193"
         d="M 0,0 5,-5 -12.5,0 5,5 0,0 z"
         style="fill:#d40000;fill-rule:evenodd;stroke:#d40000;stroke-width:1pt"
         transform="matrix(-0.4,0,0,-0.4,-4,0)"
         inkscape:connector-curvature="0" />
    </marker>
    <marker
       inkscape:stockid="Arrow1Menda"
       orient="auto"
       refY="0"
       refX="0"
       id="Arrow1Menda"
       style="overflow:visible">
      <path
         id="path4196"
         d="M 0,0 5,-5 -12.5,0 5,5 0,0 z"
         style="fill:#0000ff;fill-rule:evenodd;stroke:#0000ff;stroke-width:1pt"
         transform="matrix(-0.4,0,0,-0.4,-4,0)"
         inkscape:connector-curvature="0" />
    </marker>
    <marker
       inkscape:stockid="Arrow1MstartT"
       orient="auto"
       refY="0"
       refX="0"
       id="Arrow1MstartT"
       style="overflow:visible">
      <path
         id="path4199"
         d="M 0,0 5,-5 -12.5,0 5,5 0,0 z"
         style="fill:#d40000;fill-rule:evenodd;stroke:#d40000;stroke-width:1pt"
         transform="matrix(0.4,0,0,0.4,4,0)"
         inkscape:connector-curvature="0" />
    </marker>
    <marker
       inkscape:stockid="Arrow1Mstart1Q"
       orient="auto"
       refY="0"
       refX="0"
       id="Arrow1Mstart1Q"
       style="overflow:visible">
      <path
         id="path4202"
         d="M 0,0 5,-5 -12.5,0 5,5 0,0 z"
         style="fill:#0000ff;fill-rule:evenodd;stroke:#0000ff;stroke-width:1pt"
         transform="matrix(0.4,0,0,0.4,4,0)"
         inkscape:connector-curvature="0" />
    </marker>
    <marker
       inkscape:stockid="Arrow1Mstartx"
       orient="auto"
       refY="0"
       refX="0"
       id="Arrow1Mstartx"
       style="overflow:visible">
      <path
         id="path4205"
         d="M 0,0 5,-5 -12.5,0 5,5 0,0 z"
         style="fill:#0000ff;fill-rule:evenodd;stroke:#0000ff;stroke-width:1pt"
         transform="matrix(0.4,0,0,0.4,4,0)"
         inkscape:connector-curvature="0" />
    </marker>
    <marker
       inkscape:stockid="Arrow1MendL4"
       orient="auto"
       refY="0"
       refX="0"
       id="Arrow1MendL4"
       style="overflow:visible">
      <path
         id="path4208"
         d="M 0,0 5,-5 -12.5,0 5,5 0,0 z"
         style="fill:#0000ff;fill-rule:evenodd;stroke:#0000ff;stroke-width:1pt"
         transform="matrix(-0.4,0,0,-0.4,-4,0)"
         inkscape:connector-curvature="0" />
    </marker>
  </defs>
  <metadata
     id="metadata7">
    <rdf:RDF>
      <cc:Work
         rdf:about="">
        <dc:format>image/svg+xml</dc:format>
        <dc:type
           rdf:resource="http://purl.org/dc/dcmitype/StillImage" />
        <dc:title />
      </cc:Work>
    </rdf:RDF>
  </metadata>
  <g
     inkscape:label="Layer 1"
     inkscape:groupmode="layer"
     id="layer1"
     transform="translate(-128.19055,-625.87043)">
    <rect
       style="fill:#ffffff;fill-opacity:1;stroke:#000000;stroke-width:1;stroke-miterlimit:4;stroke-dasharray:none;stroke-dashoffset:0"
       id="rect3069"
       width="419.30386"
       height="43.773479"
       x="16.127071"
       y="64.508286"
       transform="translate(115.5,561.86214)" />
    <path
       style="fill:none;stroke:#000000;stroke-width:1px;stroke-linecap:butt;stroke-linejoin:miter;stroke-opacity:1"
       d="m 210.77545,626.37043 0,61.77347 0,0"
       id="path4037"
       inkscape:connector-curvature="0"
       sodipodi:nodetypes="ccc" />
    <text
       xml:space="preserve"
       style="font-size:12px;font-style:normal;font-variant:normal;font-weight:normal;font-stretch:normal;text-align:center;line-height:125%;letter-spacing:0px;word-spacing:0px;text-anchor:middle;fill:#000000;fill-opacity:1;stroke:none;font-family:'Anka/Coder';-inkscape-font-specification:'Anka/Coder'"
       x="172.1353"
       y="644.8587"
       id="text4041"
       sodipodi:linespacing="125%"><tspan
         sodipodi:role="line"
         x="172.1353"
         y="644.8587"
         id="tspan3072">Interrupt-</tspan><tspan
         sodipodi:role="line"
         x="172.1353"
         y="659.8587"
         id="tspan3070">tabelle</tspan></text>
    <text
       xml:space="preserve"
       style="font-size:12px;font-style:normal;font-variant:normal;font-weight:normal;font-stretch:normal;line-height:125%;letter-spacing:0px;word-spacing:0px;fill:#000000;fill-opacity:1;stroke:none;font-family:'Anka/Coder';-inkscape-font-specification:'Anka/Coder'"
       x="391.07803"
       y="651.27765"
       id="text4047"
       sodipodi:linespacing="125%"><tspan
         sodipodi:role="line"
         id="tspan4049"
         x="391.07803"
         y="651.27765">Heap</tspan></text>
    <text
       xml:space="preserve"
       style="font-size:12px;font-style:normal;font-variant:normal;font-weight:normal;font-stretch:normal;line-height:125%;letter-spacing:0px;word-spacing:0px;fill:#000000;fill-opacity:1;stroke:none;font-family:'Anka/Coder';-inkscape-font-specification:'Anka/Coder'"
       x="500.38953"
       y="652.3587"
       id="text4051"
       sodipodi:linespacing="125%"><tspan
         sodipodi:role="line"
         id="tspan4053"
         x="500.38953"
         y="652.3587">Stack</tspan></text>
    <path
       sodipodi:nodetypes="ccc"
       inkscape:connector-curvature="0"
       id="path4055"
       d="m 484.16772,626.37043 0,61.77347 0,0"
       style="fill:none;stroke:#000000;stroke-width:1;stroke-linecap:butt;stroke-linejoin:miter;stroke-miterlimit:4;stroke-opacity:1;stroke-dasharray:8, 1;stroke-dashoffset:0" />
    <text
       xml:space="preserve"
       style="font-size:12px;font-style:normal;font-variant:normal;font-weight:normal;font-stretch:normal;line-height:125%;letter-spacing:0px;word-spacing:0px;fill:#000000;fill-opacity:1;stroke:none;font-family:'Anka/Coder';-inkscape-font-specification:'Anka/Coder'"
       x="128.03821"
       y="706.23785"
       id="text4057"
       sodipodi:linespacing="125%"><tspan
         sodipodi:role="line"
         id="tspan4059"
         x="128.03821"
         y="706.23785">0</tspan></text>
    <text
       xml:space="preserve"
       style="font-size:12px;font-style:normal;font-variant:normal;font-weight:normal;font-stretch:normal;line-height:125%;letter-spacing:0px;word-spacing:0px;fill:#000000;fill-opacity:1;stroke:none;font-family:'Anka/Coder';-inkscape-font-specification:'Anka/Coder'"
       x="199.89752"
       y="706.23785"
       id="text4061"
       sodipodi:linespacing="125%"><tspan
         sodipodi:role="line"
         id="tspan4063"
         x="199.89752"
         y="706.23785">256</tspan></text>
    <path
       sodipodi:nodetypes="ccc"
       inkscape:connector-curvature="0"
       id="path4065"
       d="m 131.62707,626.37043 0,61.77347 0,0"
       style="fill:none;stroke:#000000;stroke-width:1px;stroke-linecap:butt;stroke-linejoin:miter;stroke-opacity:1" />
    <path
       sodipodi:nodetypes="ccc"
       inkscape:connector-curvature="0"
       id="path4067"
       d="m 550.93093,626.37043 0,61.77347 0,0"
       style="fill:none;stroke:#000000;stroke-width:1px;stroke-linecap:butt;stroke-linejoin:miter;stroke-opacity:1" />
    <text
       xml:space="preserve"
       style="font-size:12px;font-style:normal;font-variant:normal;font-weight:normal;font-stretch:normal;line-height:125%;letter-spacing:0px;word-spacing:0px;fill:#000000;fill-opacity:1;stroke:none;font-family:'Anka/Coder';-inkscape-font-specification:'Anka/Coder'"
       x="476.97534"
       y="706.23785"
       id="text4069"
       sodipodi:linespacing="125%"><tspan
         sodipodi:role="line"
         id="tspan4071"
         x="476.97534"
         y="706.23785">SP</tspan></text>
    <text
       xml:space="preserve"
       style="font-size:12px;font-style:normal;font-variant:normal;font-weight:normal;font-stretch:normal;line-height:125%;letter-spacing:0px;word-spacing:0px;fill:#000000;fill-opacity:1;stroke:none;font-family:'Anka/Coder';-inkscape-font-specification:'Anka/Coder'"
       x="540.24048"
       y="706.23785"
       id="text4073"
       sodipodi:linespacing="125%"><tspan
         sodipodi:role="line"
         id="tspan4075"
         x="540.24048"
         y="706.23785">max</tspan></text>
    <path
       sodipodi:nodetypes="ccc"
       inkscape:connector-curvature="0"
       id="path3069"
       d="m 292.77545,626.37043 0,61.77347 0,0"
       style="fill:none;stroke:#000000;stroke-width:1px;stroke-linecap:butt;stroke-linejoin:miter;stroke-opacity:1" />
    <path
       style="fill:none;stroke:#000000;stroke-width:1px;stroke-linecap:butt;stroke-linejoin:miter;stroke-opacity:1"
       d="m 370.77545,626.37043 0,61.77347 0,0"
       id="path3071"
       inkscape:connector-curvature="0"
       sodipodi:nodetypes="ccc" />
    <text
       sodipodi:linespacing="125%"
       id="text3073"
       y="651.23077"
       x="222.81549"
       style="font-size:12px;font-style:normal;font-variant:normal;font-weight:normal;font-stretch:normal;line-height:125%;letter-spacing:0px;word-spacing:0px;fill:#000000;fill-opacity:1;stroke:none;font-family:'Anka/Coder';-inkscape-font-specification:'Anka/Coder'"
       xml:space="preserve"><tspan
         y="651.23077"
         x="222.81549"
         id="tspan3075"
         sodipodi:role="line">Programm</tspan></text>
    <text
       sodipodi:linespacing="125%"
       id="text3077"
       y="652.3587"
       x="313.78424"
       style="font-size:12px;font-style:normal;font-variant:normal;font-weight:normal;font-stretch:normal;line-height:125%;letter-spacing:0px;word-spacing:0px;fill:#000000;fill-opacity:1;stroke:none;font-family:'Anka/Coder';-inkscape-font-specification:'Anka/Coder'"
       xml:space="preserve"><tspan
         y="652.3587"
         x="313.78424"
         id="tspan3079"
         sodipodi:role="line">Daten</tspan></text>
    <text
       sodipodi:linespacing="125%"
       id="text3089"
       y="706.23785"
       x="285.57721"
       style="font-size:12px;font-style:normal;font-variant:normal;font-weight:normal;font-stretch:normal;line-height:125%;letter-spacing:0px;word-spacing:0px;fill:#000000;fill-opacity:1;stroke:none;font-family:'Anka/Coder';-inkscape-font-specification:'Anka/Coder'"
       xml:space="preserve"><tspan
         y="706.23785"
         x="285.57721"
         id="tspan3091"
         sodipodi:role="line">DS</tspan></text>
    <text
       xml:space="preserve"
       style="font-size:12px;font-style:normal;font-variant:normal;font-weight:normal;font-stretch:normal;line-height:125%;letter-spacing:0px;word-spacing:0px;fill:#000000;fill-opacity:1;stroke:none;font-family:'Anka/Coder';-inkscape-font-specification:'Anka/Coder'"
       x="363.57721"
       y="706.23785"
       id="text3093"
       sodipodi:linespacing="125%"><tspan
         sodipodi:role="line"
         id="tspan3095"
         x="363.57721"
         y="706.23785">HS</tspan></text>
    <path
       style="fill:none;stroke:#000000;stroke-width:1;stroke-linecap:butt;stroke-linejoin:miter;stroke-miterlimit:4;stroke-opacity:1;stroke-dasharray:8, 1;stroke-dashoffset:0"
       d="m 440.16772,626.37043 0,61.77347 0,0"
       id="path3080"
       inkscape:connector-curvature="0"
       sodipodi:nodetypes="ccc" />
    <text
       sodipodi:linespacing="125%"
       id="text3082"
       y="706.23785"
       x="432.96948"
       style="font-size:12px;font-style:normal;font-variant:normal;font-weight:normal;font-stretch:normal;line-height:125%;letter-spacing:0px;word-spacing:0px;fill:#000000;fill-opacity:1;stroke:none;font-family:'Anka/Coder';-inkscape-font-specification:'Anka/Coder'"
       xml:space="preserve"><tspan
         y="706.23785"
         x="432.96948"
         id="tspan3084"
         sodipodi:role="line">HE</tspan></text>
  </g>
</svg>
